# xmcd
#
# Track frame offsets:
#	180
#	13512
#	26960
#	41663
#	54188
#	71503
#	82985
#	103033
#	116429
#	129291
#
# Disc length: 1888 seconds
#
# Revision: 0
# Processed by: cddbd v1.4b41PL3 Copyright (c) Steve Scherf et al.
# Submitted via: EZCDDA 4.3.3.2
#
DISCID=77075e0a
DTITLE=Percy Sledge - When a man loves a woman
DYEAR=1900
DGENRE=
TTITLE0=When a man loves a woman
TTITLE1=Warm and tender Love
TTITLE2=It tears me up
TTITLE3=Take time to know her
TTITLE4=My special prayer
TTITLE5=Sudden stop
TTITLE6=Try a little tenderness
TTITLE7=(Sittin' On) the dock of the bay
TTITLE8=You send me
TTITLE9=Cover me
EXTD=
EXTT0=
EXTT1=
EXTT2=
EXTT3=
EXTT4=
EXTT5=
EXTT6=
EXTT7=
EXTT8=
EXTT9=
PLAYORDER=
